<svg height="512" viewBox="0 0 58 52" width="512" xmlns="http://www.w3.org/2000/svg"><g id="Page-1" fill="none" fill-rule="evenodd"><g id="003---Camera" fill-rule="nonzero"><path id="Shape" d="m37.614 0h-13.228c-.8343843.00020836-1.5809655.51839072-1.873 1.3l-2.513 6.7 11 2 11-2-2.513-6.7c-.2920345-.78160928-1.0386157-1.29979164-1.873-1.3z" fill="#ff5364"/><path id="Shape" d="m47 4h6c.5522847 0 1 .44771525 1 1v4h-8v-4c0-.55228475.4477153-1 1-1z" fill="#547580"/><path id="Shape" d="m5 4h10c.5522847 0 1 .44771525 1 1v4h-12v-4c0-.55228475.44771525-1 1-1z" fill="#547580"/><path id="Shape" d="m36 5h-10c-.5522847 0-1-.44771525-1-1s.4477153-1 1-1h10c.5522847 0 1 .44771525 1 1s-.4477153 1-1 1z" fill="#f0c419"/><path id="Shape" d="m58 10v8l-28 4-30-4v-8c.0032948-1.10320187.89679813-1.9967052 2-2h54c1.1032019.0032948 1.9967052.89679813 2 2z" fill="#ecf0f1"/><path id="Shape" d="m58 18v32c-.0032948 1.1032019-.8967981 1.9967052-2 2h-54c-1.10320187-.0032948-1.9967052-.8967981-2-2v-32z" fill="#ff5364"/><path id="Shape" d="m20 14h-16c-.55228475 0-1-.4477153-1-1s.44771525-1 1-1h16c.5522847 0 1 .4477153 1 1s-.4477153 1-1 1z" fill="#bdc3c7"/><path id="Shape" d="m54 14h-2c-.5522847 0-1-.4477153-1-1s.4477153-1 1-1h2c.5522847 0 1 .4477153 1 1s-.4477153 1-1 1z" fill="#f0c419"/><circle id="Oval" cx="31" cy="34" fill="#35495e" r="18"/><circle id="Oval" cx="31" cy="34" fill="#2c3e50" r="16"/><path id="Shape" d="m45 34c.0086012 6.6076182-4.5982245 12.3240617-11.0567326 13.7199001-6.4585082 1.3958383-13.0148289-1.9079817-15.7356695-7.92942s-.8673306-13.1253154 4.4485653-17.0498464c5.3158959-3.9245311 12.6505949-3.6039719 17.6038368.7693663 3.0109398 2.6553314 4.7370988 6.4754596 4.74 10.49z" fill="#2fa8cc"/><path id="Shape" d="m41 28c.0029995 5.5045935-3.2217894 10.4994893-8.2396889 12.7625059-5.0178994 2.2630165-10.8964384 1.3736199-15.0203111-2.2725059-2.0390795-6.007348.218395-12.6348658 5.5005107-16.1484579 5.2821157-3.513592 12.2671151-3.0340431 17.0194893 1.1684579.4915199 1.4458847.7415328 2.9628549.74 4.49z" fill="#67b9cc"/><circle id="Oval" cx="31" cy="34" fill="#3b97d3" r="4"/><circle id="Oval" cx="31" cy="34" fill="#2980ba" r="2"/></g></g></svg>